<?xml version="1.0" encoding="utf-8"?>
<!-- Generator: Adobe Illustrator 18.1.0, SVG Export Plug-In . SVG Version: 6.00 Build 0)  -->
<!DOCTYPE svg PUBLIC "-//W3C//DTD SVG 1.1//EN" "http://www.w3.org/Graphics/SVG/1.1/DTD/svg11.dtd">
<svg version="1.1" id="Layer_1" xmlns="http://www.w3.org/2000/svg" xmlns:xlink="http://www.w3.org/1999/xlink" x="0px" y="0px"
	 viewBox="0 0 90.8 43.7" enable-background="new 0 0 90.8 43.7" xml:space="preserve">
<g>
	<rect x="0" y="14.9" fill="#FFFFFF" width="6.9" height="12.6"/>
	<rect x="85" y="14.9" fill="#FFFFFF" width="5.7" height="12.6"/>
	<path fill="#FFFFFF" d="M76.3,0H45.9H15.6c-5,0-8.7,3.8-8.7,8.8v25.4c0,5,3.7,9.5,8.7,9.5h23c0.7,0,1.3-0.6,1.7-1.1l3.7-6.2
		c1-1.2,2.9-1.3,4-0.1l3.7,6.3c0.4,0.6,1,1.1,1.7,1.1h23c5,0,8.8-4.5,8.8-9.5V8.8C85,3.8,81.3,0,76.3,0z M28.9,36.1
		c-8.1,0-14.6-6.5-14.6-14.6S20.8,6.9,28.9,6.9c8.1,0,14.6,6.5,14.6,14.6S36.9,36.1,28.9,36.1z M63,36.1c-8.1,0-14.6-6.5-14.6-14.6
		S54.9,6.9,63,6.9c8.1,0,14.6,6.5,14.6,14.6S71,36.1,63,36.1z"/>
</g>
<g>
</g>
<g>
</g>
<g>
</g>
<g>
</g>
<g>
</g>
<g>
</g>
</svg>
