<?xml version="1.0" encoding="utf-8"?>
<!-- Generator: Adobe Illustrator 18.1.0, SVG Export Plug-In . SVG Version: 6.00 Build 0)  -->
<!DOCTYPE svg PUBLIC "-//W3C//DTD SVG 1.1//EN" "http://www.w3.org/Graphics/SVG/1.1/DTD/svg11.dtd">
<svg version="1.1" id="Layer_1" xmlns="http://www.w3.org/2000/svg" xmlns:xlink="http://www.w3.org/1999/xlink" x="0px" y="0px"
	 viewBox="1770.2 -116.1 3095.4 3095.4" enable-background="new 1770.2 -116.1 3095.4 3095.4" xml:space="preserve">
<g>
	<rect x="2035.9" y="1236.1" fill="#FFFFFF" width="195.4" height="355.8"/>
	<rect x="4438.5" y="1236.1" fill="#FFFFFF" width="161.5" height="355.8"/>
	<path fill="#FFFFFF" d="M4192.7,814.8h-859h-856.6c-141.6,0-245.8,107.7-245.8,248.1v717.4c0,141.6,104.2,268,245.8,268h649.5
		c19.9,0,36.3-16.4,48-31.6l104.2-175.5c28.1-33.9,81.9-36.3,113.5-2.3l104.2,177.9c11.7,16.4,28.1,31.6,48,31.6h649.5
		c141.6,0,248.1-127.6,248.1-268v-717.4C4438.5,922.5,4333.1,814.8,4192.7,814.8z M2852.7,1835.3c-229.4,0-413.1-183.7-413.1-413.1
		s183.7-413.1,413.1-413.1s413.1,183.7,413.1,413.1S3078.6,1835.3,2852.7,1835.3z M3817,1835.3c-229.4,0-413.1-183.7-413.1-413.1
		s183.7-413.1,413.1-413.1c229.4,0,413.1,183.7,413.1,413.1S4042.9,1835.3,3817,1835.3z"/>
</g>
<rect x="1770.2" y="-116.1" fill="none" width="3095.4" height="3095.4"/>
</svg>
