<?xml version="1.0" encoding="utf-8"?>
<!-- Generator: Adobe Illustrator 18.1.0, SVG Export Plug-In . SVG Version: 6.00 Build 0)  -->
<!DOCTYPE svg PUBLIC "-//W3C//DTD SVG 1.1//EN" "http://www.w3.org/Graphics/SVG/1.1/DTD/svg11.dtd">
<svg version="1.1" id="Layer_1" xmlns="http://www.w3.org/2000/svg" xmlns:xlink="http://www.w3.org/1999/xlink" x="0px" y="0px"
	 viewBox="5596.5 -116.6 2552.2 2552.2" enable-background="new 5596.5 -116.6 2552.2 2552.2" xml:space="preserve">
<rect x="5597" y="-116.1" fill="none" stroke="#3176FF" stroke-miterlimit="10" width="2551.2" height="2551.2"/>
<path id="goggles" fill="#FFFFFF" d="M7959.7,998.3h-159V856.2c-4.6-116.5-90.8-205-207.3-205H6885h-706
	c-116.5,0-202.7,88.5-202.7,205v142.2H5816v293.6h160.4V1448c0,116.5,86.2,221.4,202.7,221.4H6715c16.3,0,30.3-14,39.6-25.6
	l86.2-144.5c23.3-28,67.6-30.3,93.2-2.3l86.2,146.8c9.3,14,23.3,25.6,39.6,25.6h535.9c116.5,0,205-104.8,205-221.4v-156.1h159V998.3
	z M6488.9,1492.3c-188.7,0-340.2-151.5-340.2-340.2s151.5-340.2,340.2-340.2c188.7,0,340.2,151.5,340.2,340.2
	S6675.3,1492.3,6488.9,1492.3z M7283.5,1492.3c-188.7,0-340.2-151.5-340.2-340.2s151.5-340.2,340.2-340.2
	c188.7,0,340.2,151.5,340.2,340.2S7469.9,1492.3,7283.5,1492.3z"/>
</svg>
