<?xml version="1.0" encoding="utf-8"?>
<!-- Generator: Adobe Illustrator 18.0.0, SVG Export Plug-In . SVG Version: 6.00 Build 0)  -->
<!DOCTYPE svg PUBLIC "-//W3C//DTD SVG 1.1//EN" "http://www.w3.org/Graphics/SVG/1.1/DTD/svg11.dtd">
<svg version="1.1" id="Layer_1" xmlns="http://www.w3.org/2000/svg" xmlns:xlink="http://www.w3.org/1999/xlink" x="0px" y="0px"
	 viewBox="-13.6 41 327 218" enable-background="new -13.6 41 327 218" xml:space="preserve">
<g>
	<rect x="40.3" y="133.2" fill="#FFFFFF" width="16.7" height="30.4"/>
	<rect x="245.6" y="133.2" fill="#FFFFFF" width="13.8" height="30.4"/>
	<path fill="#FFFFFF" d="M224.6,97.2h-73.4H78c-12.1,0-21,9.2-21,21.2v61.3c0,12.1,8.9,22.9,21,22.9h55.5c1.7,0,3.1-1.4,4.1-2.7
		l8.9-15c2.4-2.9,7-3.1,9.7-0.2l8.9,15.2c1,1.4,2.4,2.7,4.1,2.7h55.5c12.1,0,21.2-10.9,21.2-22.9v-61.3
		C245.6,106.4,236.6,97.2,224.6,97.2z M110.1,184.4c-19.6,0-35.3-15.7-35.3-35.3s15.7-35.3,35.3-35.3s35.3,15.7,35.3,35.3
		S129.4,184.4,110.1,184.4z M192.5,184.4c-19.6,0-35.3-15.7-35.3-35.3s15.7-35.3,35.3-35.3s35.3,15.7,35.3,35.3
		S211.8,184.4,192.5,184.4z"/>
</g>
</svg>
