<?xml version="1.0" encoding="utf-8"?>
<!-- Generator: Adobe Illustrator 18.1.0, SVG Export Plug-In . SVG Version: 6.00 Build 0)  -->
<!DOCTYPE svg PUBLIC "-//W3C//DTD SVG 1.1//EN" "http://www.w3.org/Graphics/SVG/1.1/DTD/svg11.dtd">
<svg version="1.1" id="Layer_1" xmlns="http://www.w3.org/2000/svg" xmlns:xlink="http://www.w3.org/1999/xlink" x="0px" y="0px"
	 viewBox="0 0 2835.6 515.6" enable-background="new 0 0 2835.6 515.6" xml:space="preserve">
<g>
	<g>
		<path fill="#333333" d="M458.7,238.4v269.7H318.1V234.6c0-39.9-5.7-68.4-18-87.4c-12.3-19-31.3-27.5-58.9-27.5
			S190.9,130.1,170,150c-20.9,19.9-31.3,49.4-31.3,88.3v269.7H0V8.5h139.6v57c38-43.7,82.6-64.6,132-64.6c31.3,0,59.8,9.5,85.5,27.5
			c25.6,19,44.6,40.8,57.9,67.4c19-30.4,44.6-54.1,77.9-70.3C525.1,8.5,557.4,0,590.7,0C649.5,0,697,17.1,733.1,52.2
			c36.1,35.1,54.1,85.5,54.1,151.9v303.9H646.7V234.6c0-76.9-28.5-114.9-84.5-114.9c-27.5,0-52.2,10.4-72.2,30.4
			C469.1,170,458.7,199.4,458.7,238.4z"/>
		<path fill="#333333" d="M1393.1,258.3c0,72.2-24.7,132.9-75,183.3c-50.3,49.4-113,74.1-189,74.1c-76,0-138.6-24.7-189-74.1
			c-50.3-49.4-75-110.2-75-183.3c0-72.2,24.7-133.9,75-183.3s113-75,189-75c76,0,138.6,24.7,189,75
			C1368.4,124.4,1393.1,186.1,1393.1,258.3z M1005.7,258.3c0,40.8,11.4,74.1,35.1,99.7c22.8,25.6,53.2,38.9,89.3,38.9
			s65.5-13.3,89.3-38.9c22.8-25.6,35.1-58.9,35.1-99.7c0-40.8-11.4-74.1-35.1-100.7c-22.8-25.6-53.2-38.9-89.3-38.9
			c-36.1,0-65.5,13.3-89.3,38.9C1017.1,183.3,1005.7,217.5,1005.7,258.3z"/>
		<polygon fill="#333333" points="1458.6,123.5 1458.6,8.5 1861.3,8.5 1861.3,116.8 1619.1,391.2 1875.5,391.2 1875.5,507.1 
			1440.6,507.1 1440.6,393.1 1677,123.5 		"/>
		<polygon fill="#333333" points="2125.3,508.1 1927.8,7.6 2073,7.6 2197.4,322.9 2321.8,7.6 2467.1,7.6 2269.6,508.1 		"/>
		<path fill="#333333" d="M2807.1,131c-41.8,0-72.2,14.2-93.1,43.7c-20.9,29.4-30.4,68.4-30.4,116.8v216.5H2545V8.5h139.6v65.5
			c18-20.9,40.8-38,67.4-52.2C2778.6,7.6,2806.2,0,2834.7,0l0.9,131H2807.1z"/>
	</g>
</g>
</svg>
