<?xml version="1.0" encoding="utf-8"?>
<!-- Generator: Adobe Illustrator 18.1.0, SVG Export Plug-In . SVG Version: 6.00 Build 0)  -->
<!DOCTYPE svg PUBLIC "-//W3C//DTD SVG 1.1//EN" "http://www.w3.org/Graphics/SVG/1.1/DTD/svg11.dtd">
<svg version="1.1" id="Layer_1" xmlns="http://www.w3.org/2000/svg" xmlns:xlink="http://www.w3.org/1999/xlink" x="0px" y="0px"
	 viewBox="0 567.3 2560 465.6" enable-background="new 0 567.3 2560 465.6" xml:space="preserve">
<g>
	<g>
		<path fill="#FFFFFF" d="M414.1,782.5V1026H287.2V779.1c0-36-5.1-61.8-16.3-78.9c-11.1-17.2-28.3-24.8-53.2-24.8
			s-45.4,9.4-64.3,27.4c-18.9,18-28.3,44.6-28.3,79.7v243.5H0v-451h126v51.5c34.3-39.5,74.6-58.3,119.2-58.3
			c28.3,0,54,8.6,77.2,24.8c23.1,17.2,40.3,36.8,52.3,60.8c17.2-27.4,40.3-48.8,70.3-63.5c29.1-15.3,58.2-23,88.3-23
			c53.1,0,96,15.4,128.6,47.1c32.6,31.7,48.8,77.2,48.8,137.1v274.4H583.8V779.1c0-69.4-25.7-103.7-76.3-103.7
			c-24.8,0-47.1,9.4-65.2,27.4C423.5,720.7,414.1,747.3,414.1,782.5z"/>
		<path fill="#FFFFFF" d="M1257.7,800.5c0,65.2-22.3,120-67.7,165.5c-45.4,44.6-102,66.9-170.6,66.9s-125.1-22.3-170.6-66.9
			c-45.4-44.6-67.7-99.5-67.7-165.5c0-65.2,22.3-120.9,67.7-165.5c45.4-44.6,102-67.7,170.6-67.7s125.1,22.3,170.6,67.7
			C1235.4,679.6,1257.7,735.3,1257.7,800.5z M908,800.5c0,36.8,10.3,66.9,31.7,90c20.6,23.1,48,35.1,80.6,35.1
			c32.6,0,59.1-12,80.6-35.1c20.6-23.1,31.7-53.2,31.7-90s-10.3-66.9-31.7-90.9c-20.6-23.1-48-35.1-80.6-35.1
			c-32.6,0-59.1,12-80.6,35.1C918.2,732.7,908,763.6,908,800.5z"/>
		<polygon fill="#FFFFFF" points="1316.8,678.8 1316.8,574.9 1680.4,574.9 1680.4,672.7 1461.7,920.4 1693.2,920.4 1693.2,1025.1 
			1300.6,1025.1 1300.6,922.1 1514,678.8 		"/>
		<polygon fill="#FFFFFF" points="1918.7,1026 1740.4,574.1 1871.5,574.1 1983.8,858.8 2096.1,574.1 2227.3,574.1 2049,1026 		"/>
		<path fill="#FFFFFF" d="M2534.3,685.5c-37.7,0-65.2,12.8-84.1,39.5c-18.9,26.5-27.4,61.8-27.4,105.4v195.5h-125.1v-451h126v59.1
			c16.3-18.9,36.8-34.3,60.8-47.1c24-12.8,48.9-19.7,74.7-19.7l0.8,118.3H2534.3z"/>
	</g>
</g>
</svg>
